<svg width="16" height="15" viewBox="0 0 16 15" fill="none" xmlns="http://www.w3.org/2000/svg">
<g id="Frame" clip-path="url(#clip0_18_250)">
<path id="Vector" d="M3.44702 2.40095C3.71361 2.40688 3.9802 2.42423 4.24592 2.37767C4.35649 2.3585 4.43079 2.3165 4.48411 2.20604C4.59512 1.9778 4.65892 1.72994 4.72797 1.48436C4.80795 1.1945 4.8958 0.907385 5.03652 0.642177C5.36081 0.0323354 5.91759 -0.156642 6.52245 0.140062C6.82051 0.286588 7.07749 0.498846 7.33578 0.708365C7.42581 0.7814 7.52239 0.845305 7.61024 0.922448C7.88688 1.16392 8.14823 1.11462 8.41613 0.899625C8.68404 0.684628 8.95107 0.450004 9.24651 0.265134C9.50873 0.102632 9.77882 -0.0279184 10.0922 0.00494732C10.5768 0.0565282 10.8496 0.387468 11.0362 0.821569C11.1467 1.08718 11.2355 1.36203 11.3019 1.64321C11.3532 1.83471 11.4203 2.0212 11.5025 2.20056C11.5545 2.32015 11.6367 2.36078 11.7534 2.37995C12.1768 2.45025 12.6025 2.37721 13.0264 2.40825C13.1895 2.41706 13.351 2.44665 13.5072 2.49635C14.0753 2.6867 14.3511 3.20616 14.2314 3.86073C14.1728 4.18026 14.0592 4.48199 13.9648 4.7901C13.724 5.57797 13.7073 5.5273 14.338 6.0002C14.6002 6.19602 14.8734 6.37405 15.1019 6.61187C15.6286 7.15963 15.6329 7.82242 15.1142 8.37703C14.8804 8.62672 14.5958 8.8093 14.3275 9.01198C13.7104 9.4762 13.7314 9.4228 13.96 10.1792C14.0679 10.5361 14.2108 10.8817 14.2506 11.2587C14.3223 11.9411 13.9726 12.4318 13.3263 12.556C13.0015 12.6185 12.6746 12.5975 12.3482 12.5934C12.1686 12.5893 11.9889 12.5963 11.8102 12.6144C11.638 12.6341 11.5414 12.7153 11.4715 12.8778C11.3404 13.1864 11.2827 13.5169 11.1734 13.8332C11.0668 14.139 10.9579 14.4426 10.7298 14.6781C10.4414 14.9762 10.1005 15.0689 9.7102 14.952C9.30725 14.8315 8.98996 14.5581 8.66874 14.2956C8.52146 14.1785 8.3678 14.0705 8.20854 13.972C8.05907 13.877 7.9319 13.888 7.78505 13.9761C7.59087 14.0912 7.40892 14.2276 7.24225 14.3828C6.95551 14.6566 6.60768 14.851 6.23051 14.9483C5.79828 15.0606 5.42155 14.9191 5.15758 14.5375C4.9124 14.1851 4.80795 13.7711 4.69563 13.3612C4.64414 13.1758 4.57987 12.9946 4.50334 12.8189C4.44827 12.6902 4.3648 12.6363 4.23281 12.6163C3.88974 12.5596 3.54666 12.6117 3.20446 12.5962C3.03572 12.5952 2.86722 12.5824 2.70012 12.5578C1.99081 12.4241 1.62807 11.8731 1.76661 11.1268C1.8288 10.8268 1.91296 10.5323 2.01834 10.2458C2.05828 10.1403 2.09128 10.032 2.11711 9.92172C2.22025 9.41139 2.25216 9.49355 1.85882 9.14937C1.5966 8.92114 1.28674 8.75407 1.02845 8.51717C0.708104 8.22685 0.470793 7.89317 0.503134 7.41753C0.53023 7.01675 0.75006 6.73283 1.0219 6.48543C1.21856 6.30284 1.44189 6.16133 1.65385 6.00157C2.28931 5.52182 2.26571 5.57477 2.0249 4.79239C1.91476 4.43588 1.78103 4.08851 1.73951 3.71101C1.67571 3.12856 1.98294 2.63877 2.52225 2.47855C2.82642 2.38908 3.13716 2.40277 3.44702 2.40095Z" fill="#50C878"/>
<path id="Vector_2" d="M10.6139 6.77489C10.6122 6.85956 10.5922 6.94272 10.5554 7.01819C10.5186 7.09367 10.466 7.15951 10.4015 7.21082C9.482 7.93143 8.56291 8.65128 7.64426 9.37037C7.38204 9.57578 7.13161 9.55022 6.89692 9.30692C6.45639 8.85046 6.01717 8.3917 5.57926 7.93067C5.34369 7.68327 5.33364 7.35187 5.55129 7.12683C5.76893 6.90179 6.08185 6.9164 6.32091 7.16472C6.6229 7.47694 6.92621 7.78825 7.22121 8.10732C7.31211 8.20592 7.36849 8.22783 7.48561 8.13426C8.22508 7.54313 8.97154 6.9625 9.718 6.38005C9.99596 6.16277 10.2927 6.18149 10.4907 6.4257C10.5698 6.52333 10.6135 6.64698 10.6139 6.77489Z" fill="#141B23"/>
</g>
<defs>
<clipPath id="clip0_18_250">
<rect width="15" height="15" fill="white" transform="translate(0.5)"/>
</clipPath>
</defs>
</svg>
