<svg width="16" height="15" viewBox="0 0 16 15" fill="none" xmlns="http://www.w3.org/2000/svg">
<g id="Frame" clip-path="url(#clip0_1_116)">
<path id="Vector" d="M3.44705 2.40098C3.71364 2.40691 3.98023 2.42426 4.24595 2.3777C4.35652 2.35853 4.43082 2.31653 4.48414 2.20607C4.59515 1.97783 4.65895 1.72997 4.72801 1.48439C4.80798 1.19453 4.89583 0.907415 5.03655 0.642207C5.36084 0.0323659 5.91762 -0.156612 6.52248 0.140092C6.82054 0.286619 7.07752 0.498876 7.33581 0.708395C7.42584 0.78143 7.52242 0.845336 7.61027 0.922479C7.88691 1.16395 8.14826 1.11465 8.41616 0.899656C8.68407 0.684659 8.9511 0.450034 9.24654 0.265165C9.50876 0.102662 9.77885 -0.0278879 10.0922 0.00497784C10.5769 0.0565587 10.8496 0.387498 11.0362 0.821599C11.1467 1.08721 11.2356 1.36206 11.3019 1.64324C11.3532 1.83475 11.4203 2.02123 11.5025 2.20059C11.5545 2.32018 11.6367 2.36081 11.7534 2.37998C12.1769 2.45028 12.6025 2.37724 13.0265 2.40828C13.1896 2.41709 13.351 2.44668 13.5072 2.49638C14.0754 2.68673 14.3511 3.20619 14.2314 3.86076C14.1728 4.18029 14.0592 4.48202 13.9648 4.79013C13.724 5.578 13.7074 5.52733 14.338 6.00023C14.6002 6.19606 14.8734 6.37408 15.102 6.6119C15.6286 7.15966 15.633 7.82245 15.1142 8.37706C14.8804 8.62675 14.5959 8.80934 14.3275 9.01201C13.7104 9.47624 13.7314 9.42283 13.96 10.1792C14.0679 10.5362 14.2108 10.8817 14.2506 11.2587C14.3223 11.9412 13.9727 12.4319 13.3263 12.556C13.0016 12.6186 12.6747 12.5976 12.3482 12.5935C12.1686 12.5893 11.989 12.5963 11.8102 12.6145C11.638 12.6341 11.5414 12.7153 11.4715 12.8778C11.3404 13.1864 11.2827 13.5169 11.1734 13.8332C11.0668 14.1391 10.958 14.4426 10.7298 14.6781C10.4414 14.9762 10.1005 15.0689 9.71023 14.952C9.30728 14.8315 8.99 14.5581 8.66877 14.2956C8.52149 14.1785 8.36783 14.0705 8.20857 13.972C8.0591 13.877 7.93193 13.888 7.78508 13.9761C7.5909 14.0913 7.40895 14.2276 7.24228 14.3828C6.95554 14.6566 6.60771 14.8511 6.23054 14.9484C5.79831 15.0607 5.42158 14.9192 5.15761 14.5376C4.91244 14.1852 4.80798 13.7711 4.69566 13.3612C4.64417 13.1759 4.5799 12.9946 4.50337 12.819C4.4483 12.6902 4.36483 12.6364 4.23284 12.6163C3.88977 12.5597 3.54669 12.6117 3.20449 12.5962C3.03575 12.5953 2.86725 12.5824 2.70015 12.5579C1.99084 12.4241 1.6281 11.8732 1.76664 11.1268C1.82883 10.8269 1.91299 10.5323 2.01837 10.2458C2.05831 10.1403 2.09131 10.032 2.11714 9.92175C2.22028 9.41142 2.25219 9.49358 1.85885 9.14941C1.59663 8.92117 1.28677 8.7541 1.02848 8.5172C0.708135 8.22688 0.470823 7.8932 0.503164 7.41756C0.530261 7.01679 0.75009 6.73286 1.02193 6.48546C1.21859 6.30287 1.44192 6.16136 1.65388 6.0016C2.28934 5.52185 2.26574 5.5748 2.02493 4.79242C1.9148 4.43591 1.78106 4.08854 1.73954 3.71104C1.67574 3.12859 1.98297 2.6388 2.52228 2.47858C2.82646 2.38911 3.13719 2.40281 3.44705 2.40098Z" fill="#3863FD"/>
<path id="Vector_2" d="M10.6139 6.77492C10.6122 6.85959 10.5922 6.94275 10.5554 7.01822C10.5186 7.0937 10.466 7.15954 10.4015 7.21085C9.482 7.93146 8.56291 8.65131 7.64426 9.3704C7.38204 9.57581 7.13161 9.55025 6.89692 9.30695C6.45639 8.85049 6.01717 8.39174 5.57926 7.9307C5.34369 7.6833 5.33364 7.3519 5.55129 7.12686C5.76893 6.90182 6.08185 6.91643 6.32091 7.16475C6.6229 7.47697 6.92621 7.78828 7.22121 8.10736C7.31211 8.20595 7.36849 8.22786 7.48561 8.13429C8.22508 7.54316 8.97154 6.96253 9.718 6.38008C9.99596 6.1628 10.2927 6.18152 10.4907 6.42573C10.5698 6.52336 10.6135 6.64701 10.6139 6.77492Z" fill="#FEFEFE"/>
</g>
<defs>
<clipPath id="clip0_1_116">
<rect width="15" height="15" fill="white" transform="translate(0.5)"/>
</clipPath>
</defs>
</svg>
